<svg xmlns="http://www.w3.org/2000/svg" viewBox="0 0 900 580" role="img" aria-labelledby="title desc">
  <title id="title">DBPO method comparison and performance overview</title>
  <desc id="desc">A compact overview of Drift-Based Policy Optimization, contrasting multi-step generative policies with DBPO's native one-step policy learning and highlighting fast online robot control.</desc>
  <defs>
    <marker id="arrow" viewBox="0 0 10 10" refX="8.5" refY="5" markerWidth="8" markerHeight="8" orient="auto-start-reverse">
      <path d="M 0 0 L 10 5 L 0 10 z" fill="#355C7D"/>
    </marker>
    <linearGradient id="dbp" x1="0" y1="0" x2="1" y2="1">
      <stop offset="0%" stop-color="#e8f3ff"/>
      <stop offset="100%" stop-color="#f3fff3"/>
    </linearGradient>
    <filter id="shadow" x="-20%" y="-20%" width="140%" height="140%">
      <feDropShadow dx="0" dy="4" stdDeviation="5" flood-color="#12263a" flood-opacity="0.12"/>
    </filter>
  </defs>

  <rect width="900" height="580" rx="30" fill="#fbfbf7"/>
  <text x="450" y="54" text-anchor="middle" font-family="Arial, Helvetica, sans-serif" font-size="34" font-weight="700" fill="#172033">Drift-Based Policy Optimization</text>
  <text x="450" y="88" text-anchor="middle" font-family="Arial, Helvetica, sans-serif" font-size="18" fill="#5c6573">Native one-step policy learning for online robot control</text>

  <g filter="url(#shadow)">
    <rect x="56" y="132" width="248" height="254" rx="22" fill="#ffffff" stroke="#d6dae0" stroke-width="3"/>
    <rect x="326" y="132" width="248" height="254" rx="22" fill="url(#dbp)" stroke="#7db7ff" stroke-width="4"/>
    <rect x="596" y="132" width="248" height="254" rx="22" fill="#ffffff" stroke="#d6dae0" stroke-width="3"/>
  </g>

  <text x="180" y="174" text-anchor="middle" font-family="Arial, Helvetica, sans-serif" font-size="22" font-weight="700" fill="#28313d">Multi-step policies</text>
  <text x="180" y="208" text-anchor="middle" font-family="Arial, Helvetica, sans-serif" font-size="17" fill="#626c77">iterative denoising</text>
  <circle cx="125" cy="264" r="22" fill="#dfe8ff" stroke="#93a7d8" stroke-width="3"/>
  <circle cx="180" cy="264" r="22" fill="#dfe8ff" stroke="#93a7d8" stroke-width="3"/>
  <circle cx="235" cy="264" r="22" fill="#dfe8ff" stroke="#93a7d8" stroke-width="3"/>
  <path d="M 147 264 L 158 264 M 202 264 L 213 264" stroke="#355C7D" stroke-width="3" marker-end="url(#arrow)"/>
  <text x="180" y="322" text-anchor="middle" font-family="Arial, Helvetica, sans-serif" font-size="20" fill="#28313d">50–100 NFEs</text>
  <text x="180" y="352" text-anchor="middle" font-family="Arial, Helvetica, sans-serif" font-size="16" fill="#6d7480">high inference latency</text>

  <text x="450" y="174" text-anchor="middle" font-family="Arial, Helvetica, sans-serif" font-size="25" font-weight="800" fill="#0f5132">DBPO</text>
  <text x="450" y="208" text-anchor="middle" font-family="Arial, Helvetica, sans-serif" font-size="17" fill="#53615c">training-time drift refinement</text>
  <rect x="374" y="238" width="152" height="72" rx="18" fill="#ffffff" stroke="#4d96ff" stroke-width="4"/>
  <text x="450" y="267" text-anchor="middle" font-family="Arial, Helvetica, sans-serif" font-size="18" font-weight="700" fill="#172033">one-step</text>
  <text x="450" y="292" text-anchor="middle" font-family="Arial, Helvetica, sans-serif" font-size="18" font-weight="700" fill="#172033">policy generator</text>
  <path d="M 450 318 C 416 346 402 370 392 392" fill="none" stroke="#4d96ff" stroke-width="4" marker-end="url(#arrow)"/>
  <path d="M 450 318 C 484 346 498 370 508 392" fill="none" stroke="#58b368" stroke-width="4" marker-end="url(#arrow)"/>
  <text x="450" y="354" text-anchor="middle" font-family="Arial, Helvetica, sans-serif" font-size="20" font-weight="700" fill="#0f5132">1 NFE</text>

  <text x="720" y="174" text-anchor="middle" font-family="Arial, Helvetica, sans-serif" font-size="22" font-weight="700" fill="#28313d">Online robot control</text>
  <text x="720" y="208" text-anchor="middle" font-family="Arial, Helvetica, sans-serif" font-size="17" fill="#626c77">stable policy optimization</text>
  <polyline points="640,322 682,286 724,304 766,238 810,254" fill="none" stroke="#58b368" stroke-width="6" stroke-linecap="round" stroke-linejoin="round"/>
  <circle cx="682" cy="286" r="8" fill="#58b368"/>
  <circle cx="724" cy="304" r="8" fill="#58b368"/>
  <circle cx="766" cy="238" r="8" fill="#58b368"/>
  <circle cx="810" cy="254" r="8" fill="#58b368"/>
  <text x="720" y="334" text-anchor="middle" font-family="Arial, Helvetica, sans-serif" font-size="22" font-weight="700" fill="#0f5132">105.2 Hz</text>
  <text x="720" y="360" text-anchor="middle" font-family="Arial, Helvetica, sans-serif" font-size="18" font-weight="700" fill="#0f5132">real-world control</text>
  <text x="720" y="382" text-anchor="middle" font-family="Arial, Helvetica, sans-serif" font-size="15" fill="#6d7480">fast online improvement</text>

  <path d="M 306 259 L 321 259" stroke="#355C7D" stroke-width="4" marker-end="url(#arrow)"/>
  <path d="M 576 259 L 591 259" stroke="#355C7D" stroke-width="4" marker-end="url(#arrow)"/>

  <g transform="translate(75 430)">
    <rect x="0" y="0" width="750" height="86" rx="24" fill="#172033"/>
    <text x="150" y="54" text-anchor="middle" font-family="Arial, Helvetica, sans-serif" font-size="22" font-weight="800" fill="#ffffff">100× faster</text>
    <text x="390" y="54" text-anchor="middle" font-family="Arial, Helvetica, sans-serif" font-size="20" fill="#dfe8ff">1 NFE deployment</text>
    <text x="620" y="54" text-anchor="middle" font-family="Arial, Helvetica, sans-serif" font-size="20" font-weight="700" fill="#9be7a7">ACM MM 2026</text>
  </g>
</svg>
